<svg width="33" height="33" viewBox="0 0 33 33" fill="none" xmlns="http://www.w3.org/2000/svg">
<rect x="2.0791" y="2.21448" width="28.1287" height="28.1287" rx="6" fill="url(#paint0_radial_33_83)"/>
<rect x="2.0791" y="2.21448" width="28.1287" height="28.1287" rx="6" fill="black"/>
<path d="M23.1757 10.7536C23.1757 11.5858 22.501 12.2605 21.6688 12.2605C20.8366 12.2605 20.1619 11.5858 20.1619 10.7536C20.1619 9.92136 20.8366 9.2467 21.6688 9.2467C22.501 9.2467 23.1757 9.92136 23.1757 10.7536Z" fill="white"/>
<path fill-rule="evenodd" clip-rule="evenodd" d="M16.1435 21.3019C18.9176 21.3019 21.1665 19.053 21.1665 16.2789C21.1665 13.5048 18.9176 11.2559 16.1435 11.2559C13.3694 11.2559 11.1205 13.5048 11.1205 16.2789C11.1205 19.053 13.3694 21.3019 16.1435 21.3019ZM16.1435 19.2927C17.808 19.2927 19.1573 17.9434 19.1573 16.2789C19.1573 14.6144 17.808 13.2651 16.1435 13.2651C14.479 13.2651 13.1297 14.6144 13.1297 16.2789C13.1297 17.9434 14.479 19.2927 16.1435 19.2927Z" fill="white"/>
<path fill-rule="evenodd" clip-rule="evenodd" d="M6.09753 15.877C6.09753 12.5013 6.09753 10.8134 6.7545 9.52403C7.33239 8.38987 8.25449 7.46776 9.38865 6.88988C10.678 6.23291 12.3659 6.23291 15.7417 6.23291L16.5453 6.23291C19.9211 6.23291 21.609 6.23291 22.8984 6.88988C24.0325 7.46777 24.9546 8.38987 25.5325 9.52403C26.1895 10.8134 26.1895 12.5013 26.1895 15.877L26.1895 16.6807C26.1895 20.0565 26.1895 21.7444 25.5325 23.0337C24.9546 24.1679 24.0325 25.09 22.8984 25.6679C21.609 26.3249 19.9211 26.3249 16.5453 26.3249L15.7417 26.3249C12.3659 26.3249 10.678 26.3249 9.38865 25.6679C8.25449 25.09 7.33238 24.1679 6.7545 23.0337C6.09753 21.7444 6.09753 20.0565 6.09753 16.6807L6.09753 15.877ZM15.7417 8.24211L16.5453 8.24211C18.2664 8.24211 19.4363 8.24367 20.3406 8.31756C21.2215 8.38952 21.672 8.51997 21.9862 8.68009C22.7423 9.06534 23.357 9.68008 23.7423 10.4362C23.9024 10.7504 24.0329 11.2009 24.1048 12.0818C24.1787 12.9861 24.1803 14.156 24.1803 15.877L24.1803 16.6807C24.1803 18.4018 24.1787 19.5717 24.1048 20.476C24.0329 21.3569 23.9024 21.8073 23.7423 22.1216C23.357 22.8777 22.7423 23.4924 21.9862 23.8777C21.672 24.0378 21.2215 24.1682 20.3406 24.2402C19.4363 24.3141 18.2664 24.3157 16.5453 24.3157L15.7417 24.3157C14.0206 24.3157 12.8507 24.3141 11.9464 24.2402C11.0655 24.1682 10.615 24.0378 10.3008 23.8777C9.5447 23.4924 8.92996 22.8777 8.5447 22.1216C8.38459 21.8073 8.25414 21.3569 8.18217 20.476C8.10829 19.5717 8.10673 18.4018 8.10673 16.6807L8.10673 15.877C8.10673 14.156 8.10829 12.9861 8.18218 12.0818C8.25414 11.2009 8.38459 10.7504 8.54471 10.4362C8.92996 9.68007 9.5447 9.06534 10.3008 8.68008C10.615 8.51997 11.0655 8.38952 11.9464 8.31755C12.8507 8.24367 14.0206 8.24211 15.7417 8.24211Z" fill="white"/>
<defs>
<radialGradient id="paint0_radial_33_83" cx="0" cy="0" r="1" gradientUnits="userSpaceOnUse" gradientTransform="translate(12.1251 23.311) rotate(-55.3758) scale(25.6369)">
<stop stop-color="#B13589"/>
<stop offset="0.79309" stop-color="#C62F94"/>
<stop offset="1" stop-color="#8A3AC8"/>
</radialGradient>
</defs>
</svg>
