<svg width="40" height="41" viewBox="0 0 40 41" fill="none" xmlns="http://www.w3.org/2000/svg">
<path d="M35 20.1354C35 28.4196 28.2843 35.1354 20 35.1354C16.8402 35.1354 13.9086 34.1584 11.4908 32.4899L6.36364 33.7717L7.7072 28.7334C6.00116 26.2987 5 23.334 5 20.1354C5 11.8511 11.7157 5.13538 20 5.13538C28.2843 5.13538 35 11.8511 35 20.1354Z" fill="black"/>
<path fill-rule="evenodd" clip-rule="evenodd" d="M20 37.6354C29.665 37.6354 37.5 29.8004 37.5 20.1354C37.5 10.4704 29.665 2.63538 20 2.63538C10.335 2.63538 2.5 10.4704 2.5 20.1354C2.5 23.274 3.32625 26.2196 4.77309 28.7666L2.5 37.6354L11.6436 35.5151C14.1267 36.8672 16.9736 37.6354 20 37.6354ZM20 34.9431C28.1781 34.9431 34.8077 28.3134 34.8077 20.1354C34.8077 11.9573 28.1781 5.32768 20 5.32768C11.8219 5.32768 5.19231 11.9573 5.19231 20.1354C5.19231 23.293 6.18063 26.2197 7.8648 28.6231L6.53846 33.5969L11.5999 32.3316C13.9867 33.9786 16.8807 34.9431 20 34.9431Z" fill="white"/>
<path d="M15.625 12.0104C15.2089 11.1746 14.5707 11.2486 13.9258 11.2486C12.7735 11.2486 10.9766 12.629 10.9766 15.1979C10.9766 17.3033 11.9043 19.608 15.0305 23.0556C18.0476 26.3828 22.0117 28.104 25.3027 28.0454C28.5938 27.9868 29.2709 25.1548 29.2709 24.1984C29.2709 23.7745 29.0078 23.563 28.8266 23.5055C27.7051 22.9673 25.6367 21.9644 25.166 21.776C24.6954 21.5876 24.4497 21.8424 24.2969 21.9811C23.8701 22.3878 23.0241 23.5865 22.7344 23.8561C22.4447 24.1257 22.0129 23.9892 21.8331 23.8873C21.1718 23.6219 19.3787 22.8243 17.9493 21.4388C16.1817 19.7252 16.0779 19.1357 15.7449 18.6109C15.4784 18.1911 15.674 17.9335 15.7715 17.8209C16.1524 17.3815 16.6783 16.703 16.9141 16.3658C17.1499 16.0287 16.9627 15.5168 16.8504 15.1979C16.3672 13.8268 15.9579 12.6789 15.625 12.0104Z" fill="white"/>
</svg>
