<?xml version="1.0" encoding="UTF-8"?>
<!DOCTYPE svg PUBLIC "-//W3C//DTD SVG 1.1//EN" "http://www.w3.org/Graphics/SVG/1.1/DTD/svg11.dtd">
<svg xmlns="http://www.w3.org/2000/svg" version="1.1" width="1313px" height="901px" style="shape-rendering:geometricPrecision; text-rendering:geometricPrecision; image-rendering:optimizeQuality; fill-rule:evenodd; clip-rule:evenodd" xmlns:xlink="http://www.w3.org/1999/xlink">
<g><path style="opacity:0.996" fill="#000000" d="M 495.5,-0.5 C 512.5,-0.5 529.5,-0.5 546.5,-0.5C 698.636,12.2888 817.136,81.6221 902,207.5C 911.143,205.221 920.309,204.721 929.5,206C 949.006,217.25 968.006,229.25 986.5,242C 991.706,243.68 996.706,245.847 1001.5,248.5C 1008.19,244.99 1014.19,240.49 1019.5,235C 1037.71,226.228 1056.38,218.561 1075.5,212C 1085.12,205.207 1095.12,199.041 1105.5,193.5C 1100.98,185.783 1095.98,178.449 1090.5,171.5C 1084.7,172.921 1084.03,171.587 1088.5,167.5C 1084.69,162.521 1080.69,157.688 1076.5,153C 1074.14,152.845 1071.81,152.845 1069.5,153C 1070.69,151.981 1071.69,150.814 1072.5,149.5C 1068.69,144.521 1064.69,139.688 1060.5,135C 1055.47,135.51 1050.47,136.176 1045.5,137C 1048.69,134.308 1052.03,131.808 1055.5,129.5C 1050.84,125.372 1046.51,120.872 1042.5,116C 1037.75,116.255 1033.08,116.922 1028.5,118C 1030.91,115.715 1033.41,113.549 1036,111.5C 1036.67,110.5 1036.67,109.5 1036,108.5C 1032.17,104.667 1028.33,100.833 1024.5,97C 1021.53,96.617 1018.69,97.117 1016,98.5C 1017.13,95.9758 1018.46,93.6425 1020,91.5C 1002.25,73.4165 984.251,55.7499 966,38.5C 963.675,34.8017 964.175,31.635 967.5,29C 973.555,27.2776 979.721,26.1109 986,25.5C 989.012,25.7261 991.845,26.5594 994.5,28C 1027.63,50.4551 1061.3,72.1218 1095.5,93C 1114.36,106.849 1134.03,119.516 1154.5,131C 1170.74,138.12 1186.08,146.786 1200.5,157C 1203.17,157.667 1205.83,157.667 1208.5,157C 1230.25,149.861 1251.92,142.527 1273.5,135C 1283.38,132.672 1293.38,132.006 1303.5,133C 1311.37,134.749 1313.54,139.249 1310,146.5C 1299.83,156.658 1288.67,165.491 1276.5,173C 1264.18,178.824 1252.18,185.157 1240.5,192C 1234.83,193.667 1229.17,195.333 1223.5,197C 1220.89,198.938 1219.06,201.438 1218,204.5C 1207.46,239.107 1197.13,273.774 1187,308.5C 1184.96,334.479 1180.96,360.145 1175,385.5C 1168.82,401.72 1164.15,418.386 1161,435.5C 1157.35,442.824 1152.52,449.324 1146.5,455C 1138.43,458.86 1134.6,456.36 1135,447.5C 1135.19,431.984 1136.02,416.484 1137.5,401C 1137,391.439 1136,381.939 1134.5,372.5C 1132.26,373.752 1129.93,374.252 1127.5,374C 1129.76,372.285 1131.93,370.452 1134,368.5C 1134.67,361.5 1134.67,354.5 1134,347.5C 1130.81,348.732 1127.64,350.065 1124.5,351.5C 1124.17,351.167 1123.83,350.833 1123.5,350.5C 1126.5,347.675 1129.66,345.008 1133,342.5C 1134.19,336.222 1134.69,329.888 1134.5,323.5C 1130.12,324.08 1125.79,324.58 1121.5,325C 1125.33,322.25 1129.33,319.75 1133.5,317.5C 1134.66,311.193 1134.83,304.859 1134,298.5C 1133.48,297.484 1132.65,296.818 1131.5,296.5C 1130.01,297.309 1128.68,297.309 1127.5,296.5C 1130.28,294.731 1132.28,292.398 1133.5,289.5C 1132.76,284.167 1132.09,278.833 1131.5,273.5C 1123.08,273.366 1122.58,271.699 1130,268.5C 1129.96,260.971 1128.63,253.638 1126,246.5C 1125.22,244.777 1123.89,243.777 1122,243.5C 1112.39,244.74 1102.89,246.574 1093.5,249C 1082.17,254.667 1070.83,260.333 1059.5,266C 1049.26,268.178 1039.26,271.178 1029.5,275C 1025.17,275.333 1020.83,275.667 1016.5,276C 1012.73,277.442 1009.89,279.942 1008,283.5C 1006.55,293.536 1004.88,303.536 1003,313.5C 1002.06,316.993 1000.72,320.326 999,323.5C 996.881,334.217 994.547,344.884 992,355.5C 987.515,360.953 982.681,366.119 977.5,371C 972.785,373.798 969.619,372.631 968,367.5C 967.226,360.647 968.059,353.98 970.5,347.5C 968.129,331.768 966.795,315.934 966.5,300C 966.555,297.443 966.888,294.943 967.5,292.5C 966.833,290.5 965.5,289.167 963.5,288.5C 960.566,289.42 957.566,290.087 954.5,290.5C 947.656,289.872 946.156,286.872 950,281.5C 952.323,278.422 955.157,275.922 958.5,274C 950,265.5 941.5,257 933,248.5C 926.706,240.538 920.04,232.871 913,225.5C 921.245,241.99 929.578,258.657 938,275.5C 981.892,389.006 982.558,502.672 940,616.5C 890.018,736.482 804.852,820.982 684.5,870C 637.34,888.064 588.673,898.231 538.5,900.5C 526.833,900.5 515.167,900.5 503.5,900.5C 432.555,897.428 365.888,878.761 303.5,844.5C 302.205,845.098 300.872,845.598 299.5,846C 268.818,849.216 238.151,849.216 207.5,846C 179.465,840.251 172.965,825.085 188,800.5C 194.5,791.333 202.333,783.5 211.5,777C 201.667,768.5 192.5,759.333 184,749.5C 173.333,736.833 162.667,724.167 152,711.5C 142.296,719.536 133.63,728.536 126,738.5C 123.163,743.172 121.163,748.172 120,753.5C 117.25,769.108 118.25,784.442 123,799.5C 125.736,805.875 128.57,812.208 131.5,818.5C 131.113,819.72 130.28,820.387 129,820.5C 116.31,801.395 111.643,780.395 115,757.5C 119.533,737.116 130.533,721.116 148,709.5C 148.667,708.5 148.667,707.5 148,706.5C 140.611,697.285 133.444,687.952 126.5,678.5C 100.833,691 75.1667,703.5 49.5,716C 47.4141,716.557 46.0807,715.724 45.5,713.5C 71.9205,700.692 98.2538,687.692 124.5,674.5C 118.988,664.805 113.488,655.138 108,645.5C 67.3995,661.692 34.7328,652.026 10,616.5C 6.63653,610.331 3.13653,604.331 -0.5,598.5C -0.5,597.833 -0.5,597.167 -0.5,596.5C 1.08609,595.587 2.58609,595.587 4,596.5C 15.0168,622.854 34.1835,640.021 61.5,648C 77.418,649.427 92.7514,647.094 107.5,641C 91.9095,600.806 81.2428,559.306 75.5,516.5C 59.5366,518.008 44.8699,514.508 31.5,506C 20.2752,493.867 17.7752,480.034 24,464.5C 30.9336,448.248 40.2669,433.581 52,420.5C 57.82,413.713 63.9867,407.213 70.5,401C 71.448,400.517 72.448,400.351 73.5,400.5C 91.86,258.193 160.527,147.693 279.5,69C 345.736,27.8656 417.736,4.69893 495.5,-0.5 Z M 71.5,406.5 C 72.1471,407.274 72.4805,408.274 72.5,409.5C 69.4941,443.903 70.1608,478.236 74.5,512.5C 61.4546,513.376 49.1213,510.876 37.5,505C 29.2672,499.207 24.9339,491.207 24.5,481C 26.3523,468.462 30.8523,456.962 38,446.5C 47.8726,432.124 59.0393,418.79 71.5,406.5 Z M 213.5,780.5 C 239.671,803.262 267.671,823.595 297.5,841.5C 289.56,842.853 281.56,843.686 273.5,844C 257.167,844.667 240.833,844.667 224.5,844C 212.956,843.492 201.956,840.825 191.5,836C 184.547,829.833 182.714,822.333 186,813.5C 192.801,800.532 201.967,789.532 213.5,780.5 Z"/></g>
<g><path style="opacity:1" fill="#7c888b" d="M 500.5,5.5 C 534.785,3.3513 568.785,5.68463 602.5,12.5C 603.537,14.7375 603.703,17.0709 603,19.5C 599.864,21.3195 596.864,23.3195 594,25.5C 592.97,27.5883 592.137,29.755 591.5,32C 591.905,32.9454 592.572,33.6121 593.5,34C 606.437,35.8212 608.937,41.9879 601,52.5C 596.786,56.3821 592.286,59.8821 587.5,63C 586.941,63.7247 586.608,64.5581 586.5,65.5C 589.43,70.9403 592.597,76.2736 596,81.5C 596.667,83.5 596.667,85.5 596,87.5C 586.1,91.8025 576.266,96.3025 566.5,101C 572.83,102.482 579.163,104.148 585.5,106C 587.85,108.373 588.017,110.873 586,113.5C 583.131,116.704 579.965,119.537 576.5,122C 563.167,128.333 549.833,134.667 536.5,141C 525.797,146.598 516.297,153.765 508,162.5C 501.785,177.263 494.785,191.597 487,205.5C 482.13,211.783 476.297,212.949 469.5,209C 457.42,197.261 447.253,184.094 439,169.5C 438.421,167.351 437.921,165.185 437.5,163C 441.236,152.654 443.569,141.987 444.5,131C 444.079,128.815 443.579,126.649 443,124.5C 439.373,122.628 435.54,121.128 431.5,120C 430.684,118.077 430.017,116.077 429.5,114C 432.354,104.458 435.354,94.9581 438.5,85.5C 436.924,74.1427 430.924,66.3094 420.5,62C 410.156,62.7218 399.823,63.8885 389.5,65.5C 385.319,66.2532 382.153,64.9199 380,61.5C 379.313,52.3289 380.979,43.6622 385,35.5C 390.435,31.907 396.268,29.0737 402.5,27C 406.455,23.1969 410.788,20.0302 415.5,17.5C 442.587,10.3771 470.254,6.37709 498.5,5.5C 481.585,7.57586 464.585,10.0759 447.5,13C 436.962,14.8844 426.629,17.5511 416.5,21C 412.553,23.2798 408.887,25.9465 405.5,29C 400.249,31.5278 394.916,33.8611 389.5,36C 386.485,38.8634 384.651,42.3634 384,46.5C 383.646,50.3542 383.146,54.1875 382.5,58C 383.137,61.9018 385.47,63.4018 389.5,62.5C 400.436,60.4533 411.436,59.2866 422.5,59C 433.997,64.0152 440.33,72.8485 441.5,85.5C 438.784,95.262 435.784,104.929 432.5,114.5C 433.04,115.748 433.707,116.915 434.5,118C 438.831,118.331 442.664,119.831 446,122.5C 447.893,136.453 446.06,149.953 440.5,163C 445.427,175.016 452.26,185.85 461,195.5C 465.199,200.034 469.699,204.201 474.5,208C 479.08,208.457 482.58,206.624 485,202.5C 492.742,189.016 499.408,175.016 505,160.5C 514.836,150.5 526.002,142.334 538.5,136C 549.619,131.274 560.619,126.274 571.5,121C 576.47,118.025 580.804,114.358 584.5,110C 583.284,108.26 581.618,107.26 579.5,107C 575.181,106.24 570.848,105.573 566.5,105C 564.59,104.592 563.59,103.425 563.5,101.5C 564.606,98.5589 566.606,96.3922 569.5,95C 577.624,92.4066 585.458,89.24 593,85.5C 593.52,83.7111 593.187,82.0444 592,80.5C 589.089,77.0105 586.422,73.3438 584,69.5C 583.333,67.1667 583.333,64.8333 584,62.5C 589.333,57.8333 594.667,53.1667 600,48.5C 604.075,43.6352 603.242,40.1352 597.5,38C 594.522,37.304 591.522,36.804 588.5,36.5C 587.081,26.6265 591.081,20.6265 600.5,18.5C 600.67,17.1779 600.337,16.0113 599.5,15C 596.754,13.2503 593.754,12.2503 590.5,12C 560.607,8.23683 530.607,6.07017 500.5,5.5 Z"/></g>
<g><path style="opacity:1" fill="#cdebe2" d="M 498.5,5.5 C 499.167,5.5 499.833,5.5 500.5,5.5C 530.607,6.07017 560.607,8.23683 590.5,12C 593.754,12.2503 596.754,13.2503 599.5,15C 600.337,16.0113 600.67,17.1779 600.5,18.5C 591.081,20.6265 587.081,26.6265 588.5,36.5C 591.522,36.804 594.522,37.304 597.5,38C 603.242,40.1352 604.075,43.6352 600,48.5C 594.667,53.1667 589.333,57.8333 584,62.5C 583.333,64.8333 583.333,67.1667 584,69.5C 586.422,73.3438 589.089,77.0105 592,80.5C 593.187,82.0444 593.52,83.7111 593,85.5C 585.458,89.24 577.624,92.4066 569.5,95C 566.606,96.3922 564.606,98.5589 563.5,101.5C 563.59,103.425 564.59,104.592 566.5,105C 570.848,105.573 575.181,106.24 579.5,107C 581.618,107.26 583.284,108.26 584.5,110C 580.804,114.358 576.47,118.025 571.5,121C 560.619,126.274 549.619,131.274 538.5,136C 526.002,142.334 514.836,150.5 505,160.5C 499.408,175.016 492.742,189.016 485,202.5C 482.58,206.624 479.08,208.457 474.5,208C 469.699,204.201 465.199,200.034 461,195.5C 452.26,185.85 445.427,175.016 440.5,163C 446.06,149.953 447.893,136.453 446,122.5C 442.664,119.831 438.831,118.331 434.5,118C 433.707,116.915 433.04,115.748 432.5,114.5C 435.784,104.929 438.784,95.262 441.5,85.5C 440.33,72.8485 433.997,64.0152 422.5,59C 411.436,59.2866 400.436,60.4533 389.5,62.5C 385.47,63.4018 383.137,61.9018 382.5,58C 383.146,54.1875 383.646,50.3542 384,46.5C 384.651,42.3634 386.485,38.8634 389.5,36C 394.916,33.8611 400.249,31.5278 405.5,29C 408.887,25.9465 412.553,23.2798 416.5,21C 426.629,17.5511 436.962,14.8844 447.5,13C 464.585,10.0759 481.585,7.57586 498.5,5.5 Z"/></g>
<g><path style="opacity:1" fill="#cee3e7" d="M 602.5,12.5 C 673.812,25.5019 737.812,54.1686 794.5,98.5C 787.604,103.559 781.104,109.226 775,115.5C 770.316,120.865 766.65,126.865 764,133.5C 763.667,136.833 763.333,140.167 763,143.5C 760.561,146.059 757.895,148.392 755,150.5C 753.152,156.228 751.152,161.894 749,167.5C 747.833,168.667 746.667,169.833 745.5,171C 738.275,173.193 732.108,177.026 727,182.5C 723.667,187.833 720.333,193.167 717,198.5C 714.708,204.324 713.708,210.324 714,216.5C 716.522,218.181 719.355,219.181 722.5,219.5C 730.886,217.871 739.052,215.537 747,212.5C 748.882,212.688 750.048,213.688 750.5,215.5C 751.464,226.612 756.797,234.779 766.5,240C 771.949,240.896 777.282,240.563 782.5,239C 783.87,237.559 784.87,235.892 785.5,234C 783.069,226.263 782.569,218.43 784,210.5C 785.667,207.5 788,205.167 791,203.5C 792.939,198.527 792.939,193.527 791,188.5C 789.223,185.28 787.723,181.947 786.5,178.5C 789.432,176.072 792.265,173.406 795,170.5C 796.667,164.155 798.334,157.822 800,151.5C 802.571,148.653 805.571,147.987 809,149.5C 810.166,152.503 811.833,155.17 814,157.5C 814.977,170.84 815.977,184.173 817,197.5C 817.785,199.286 818.951,200.786 820.5,202C 825.641,204.395 830.974,206.228 836.5,207.5C 837.663,209.55 837.496,211.55 836,213.5C 828.768,218.911 820.601,221.745 811.5,222C 810.667,222.833 809.833,223.667 809,224.5C 805.722,232.273 803.055,240.273 801,248.5C 800.101,252.151 797.934,254.651 794.5,256C 790.167,256.667 785.833,256.667 781.5,256C 771.74,254.177 761.907,253.01 752,252.5C 746.326,252.254 740.826,253.087 735.5,255C 733.126,257.039 731.126,259.372 729.5,262C 725.554,262.533 722.388,264.366 720,267.5C 717.692,274.064 715.692,280.73 714,287.5C 713.535,288.931 712.701,290.097 711.5,291C 703.645,293.31 695.645,294.976 687.5,296C 682.023,297.322 677.189,299.822 673,303.5C 672.245,306.303 672.578,308.97 674,311.5C 678.546,315.714 683.379,319.547 688.5,323C 687.21,325.292 685.543,327.292 683.5,329C 675.565,333.312 667.232,336.645 658.5,339C 656.859,340.129 655.859,341.629 655.5,343.5C 653.048,340.682 650.048,339.682 646.5,340.5C 645.964,344.794 646.297,349.128 647.5,353.5C 647.41,355.425 646.41,356.592 644.5,357C 521.361,406.323 395.028,445.49 265.5,474.5C 266.384,465.197 268.551,456.197 272,447.5C 272.333,443.167 272.667,438.833 273,434.5C 277.381,425.365 281.381,416.032 285,406.5C 286,405.833 287,405.167 288,404.5C 287.854,399.176 287.854,393.843 288,388.5C 288.689,387.643 289.522,386.977 290.5,386.5C 295.254,389.087 299.587,392.254 303.5,396C 305.365,397.301 307.365,397.635 309.5,397C 314.194,389.119 319.027,381.286 324,373.5C 328.366,368.799 333.033,364.466 338,360.5C 339.958,355.41 342.792,350.91 346.5,347C 350.039,345.496 353.705,345.163 357.5,346C 361.327,347.746 364.993,349.746 368.5,352C 369.5,352.667 370.5,352.667 371.5,352C 375.57,345.26 380.404,339.093 386,333.5C 389.284,329.405 389.118,325.571 385.5,322C 378.989,321.932 372.656,320.932 366.5,319C 365.536,316.353 366.036,313.853 368,311.5C 371.062,305.77 374.896,300.603 379.5,296C 391.916,294.563 403.916,291.563 415.5,287C 421.966,279.016 422.8,270.516 418,261.5C 412.635,255.801 406.969,250.467 401,245.5C 400.333,244.167 399.667,242.833 399,241.5C 398.796,234.157 398.796,226.824 399,219.5C 398.474,215.476 396.307,212.809 392.5,211.5C 390.973,209.807 389.64,207.973 388.5,206C 386.833,205.333 385.167,205.333 383.5,206C 378.607,211.636 373.607,217.136 368.5,222.5C 366.082,221.543 363.916,220.209 362,218.5C 360.773,213.799 358.606,209.632 355.5,206C 345.951,201.976 336.451,197.81 327,193.5C 323.347,194.487 321.013,196.82 320,200.5C 317.25,207.917 315.75,215.583 315.5,223.5C 318.307,236.398 320.64,249.398 322.5,262.5C 323.091,269.155 320.591,274.155 315,277.5C 311.744,283.085 308.577,288.751 305.5,294.5C 300.781,296.778 296.614,295.778 293,291.5C 291.162,288.963 290.329,286.129 290.5,283C 291.911,275.842 293.911,268.842 296.5,262C 294.742,256.747 291.076,253.914 285.5,253.5C 279.307,254.931 273.307,256.931 267.5,259.5C 261.351,257.246 255.017,255.413 248.5,254C 247.299,253.097 246.465,251.931 246,250.5C 245.267,242.569 243.434,234.902 240.5,227.5C 241.034,225.386 242.034,223.552 243.5,222C 250.49,220.338 256.824,217.338 262.5,213C 267.061,207.527 272.061,202.527 277.5,198C 288.098,194.801 298.764,191.801 309.5,189C 312.869,186.635 315.036,183.468 316,179.5C 316.587,172.47 317.42,165.47 318.5,158.5C 318.213,153.758 316.213,149.925 312.5,147C 307.167,146.333 301.833,146.333 296.5,147C 294.17,148.799 292.17,150.965 290.5,153.5C 284.853,153.873 279.52,155.373 274.5,158C 270.5,161.333 266.5,164.667 262.5,168C 252.19,172.488 242.19,177.488 232.5,183C 227.833,183.667 223.167,183.667 218.5,183C 210.898,181.28 203.232,179.946 195.5,179C 188.492,176.501 182.159,173.001 176.5,168.5C 239.228,91.8494 318.895,41.516 415.5,17.5C 410.788,20.0302 406.455,23.1969 402.5,27C 396.268,29.0737 390.435,31.907 385,35.5C 380.979,43.6622 379.313,52.3289 380,61.5C 382.153,64.9199 385.319,66.2532 389.5,65.5C 399.823,63.8885 410.156,62.7218 420.5,62C 430.924,66.3094 436.924,74.1427 438.5,85.5C 435.354,94.9581 432.354,104.458 429.5,114C 430.017,116.077 430.684,118.077 431.5,120C 435.54,121.128 439.373,122.628 443,124.5C 443.579,126.649 444.079,128.815 444.5,131C 443.569,141.987 441.236,152.654 437.5,163C 437.921,165.185 438.421,167.351 439,169.5C 447.253,184.094 457.42,197.261 469.5,209C 476.297,212.949 482.13,211.783 487,205.5C 494.785,191.597 501.785,177.263 508,162.5C 516.297,153.765 525.797,146.598 536.5,141C 549.833,134.667 563.167,128.333 576.5,122C 579.965,119.537 583.131,116.704 586,113.5C 588.017,110.873 587.85,108.373 585.5,106C 579.163,104.148 572.83,102.482 566.5,101C 576.266,96.3025 586.1,91.8025 596,87.5C 596.667,85.5 596.667,83.5 596,81.5C 592.597,76.2736 589.43,70.9403 586.5,65.5C 586.608,64.5581 586.941,63.7247 587.5,63C 592.286,59.8821 596.786,56.3821 601,52.5C 608.937,41.9879 606.437,35.8212 593.5,34C 592.572,33.6121 591.905,32.9454 591.5,32C 592.137,29.755 592.97,27.5883 594,25.5C 596.864,23.3195 599.864,21.3195 603,19.5C 603.703,17.0709 603.537,14.7375 602.5,12.5 Z"/></g>
<g><path style="opacity:1" fill="#f82e57" d="M 1293.5,138.5 C 1293.37,139.376 1293.7,140.043 1294.5,140.5C 1295.74,139.754 1297.07,139.421 1298.5,139.5C 1298.74,138.209 1298.4,137.209 1297.5,136.5C 1310.08,136.397 1311.58,140.731 1302,149.5C 1301.77,148.263 1301.27,147.263 1300.5,146.5C 1300.58,144.696 1300.24,142.696 1299.5,140.5C 1298.21,140.263 1297.21,140.596 1296.5,141.5C 1295.5,141.5 1294.5,141.5 1293.5,141.5C 1293.08,143.781 1293.74,145.448 1295.5,146.5C 1295.33,147.492 1295.66,148.158 1296.5,148.5C 1296.35,149.552 1296.52,150.552 1297,151.5C 1298.05,150.483 1299.22,150.316 1300.5,151C 1293.45,157.049 1286.12,162.716 1278.5,168C 1266.01,174.412 1253.67,181.079 1241.5,188C 1235.21,190.155 1228.88,192.155 1222.5,194C 1220.38,195.122 1218.54,196.622 1217,198.5C 1206.87,231.883 1196.54,265.217 1186,298.5C 1182.7,323.21 1179.03,347.877 1175,372.5C 1172.6,382.03 1169.6,391.363 1166,400.5C 1163.67,410.5 1161.33,420.5 1159,430.5C 1156.19,438.99 1151.35,446.156 1144.5,452C 1142.7,453.505 1140.87,453.672 1139,452.5C 1138.18,449.215 1137.68,445.882 1137.5,442.5C 1138.48,428.666 1139.48,414.833 1140.5,401C 1137.14,366.218 1135.98,331.385 1137,296.5C 1135.91,282.763 1134.24,269.096 1132,255.5C 1131.28,251.284 1129.95,247.284 1128,243.5C 1126.41,241.703 1124.41,240.703 1122,240.5C 1112.03,241.561 1102.19,243.395 1092.5,246C 1080.35,252.24 1068.02,258.24 1055.5,264C 1046.21,265.651 1037.21,268.318 1028.5,272C 1022.28,271.936 1016.28,272.936 1010.5,275C 1007.86,276.961 1006.03,279.461 1005,282.5C 1003.57,290.819 1002.24,299.152 1001,307.5C 1000.1,312.764 998.435,317.764 996,322.5C 993.666,333.172 991.333,343.838 989,354.5C 984.021,359.811 978.687,364.811 973,369.5C 971.481,367.444 970.647,365.11 970.5,362.5C 971.58,357.682 972.58,352.848 973.5,348C 970.739,328.557 969.573,309.057 970,289.5C 969.167,288 968,286.833 966.5,286C 962.557,285.462 958.724,285.962 955,287.5C 953.605,287.22 952.438,286.553 951.5,285.5C 952.711,283.578 954.044,281.745 955.5,280C 958.503,278.834 961.17,277.167 963.5,275C 954.364,264.863 944.864,255.03 935,245.5C 927.912,235.991 919.912,227.324 911,219.5C 908.64,216.64 906.473,213.64 904.5,210.5C 913.234,207.646 921.901,207.479 930.5,210C 941.001,217.42 952.001,224.087 963.5,230C 974.573,239.889 987.239,247.055 1001.5,251.5C 1004.03,251.237 1006.36,250.404 1008.5,249C 1012.83,245.333 1017.17,241.667 1021.5,238C 1038.6,229.3 1056.27,221.967 1074.5,216C 1085.78,208.776 1097.28,201.942 1109,195.5C 1109.52,193.711 1109.19,192.044 1108,190.5C 1101.94,182.103 1096.27,173.437 1091,164.5C 1079.96,152.462 1069.29,140.129 1059,127.5C 1035.24,102.35 1011.24,77.3502 987,52.5C 980.667,46.8333 974.333,41.1667 968,35.5C 967.316,34.2161 967.483,33.0495 968.5,32C 974.236,30.3708 980.069,29.2042 986,28.5C 1036.33,59.4852 1086.16,91.3186 1135.5,124C 1146.06,130.448 1157.06,136.114 1168.5,141C 1178.83,147.333 1189.17,153.667 1199.5,160C 1202.83,160.667 1206.17,160.667 1209.5,160C 1228.98,153.728 1248.32,147.061 1267.5,140C 1275.64,137.42 1283.98,135.92 1292.5,135.5C 1292.26,136.791 1292.6,137.791 1293.5,138.5 Z"/></g>
<g><path style="opacity:1" fill="#7b878a" d="M 794.5,98.5 C 796.678,99.6566 798.678,100.99 800.5,102.5C 799.417,102.461 798.417,102.127 797.5,101.5C 784.01,109.487 773.844,120.487 767,134.5C 766.667,138.167 766.333,141.833 766,145.5C 763.443,148.192 760.609,150.525 757.5,152.5C 756.156,157.54 754.656,162.54 753,167.5C 751.859,169.609 750.359,171.442 748.5,173C 741.066,175.795 734.566,179.962 729,185.5C 726,190.167 723,194.833 720,199.5C 718.189,204.398 717.189,209.398 717,214.5C 718.667,215.167 720.333,215.833 722,216.5C 729.355,215.079 736.521,212.913 743.5,210C 746.594,209.348 749.594,209.682 752.5,211C 753.74,219.053 756.74,226.386 761.5,233C 767.17,237.415 773.503,238.581 780.5,236.5C 781.445,230.308 781.112,224.141 779.5,218C 779.418,210.327 782.584,204.493 789,200.5C 789.167,199.167 789.333,197.833 789.5,196.5C 787.888,189.769 785.555,183.269 782.5,177C 782.759,175.739 783.426,174.739 784.5,174C 787.173,172.999 789.507,171.499 791.5,169.5C 793.653,163.265 795.487,156.932 797,150.5C 800.699,145.707 805.366,144.373 811,146.5C 812.63,150.059 814.63,153.392 817,156.5C 818,169.833 819,183.167 820,196.5C 821.109,198.815 822.943,200.315 825.5,201C 830.818,201.698 835.651,203.532 840,206.5C 841.019,213.941 837.852,218.774 830.5,221C 824.392,222.877 818.225,224.377 812,225.5C 808.541,234.332 805.541,243.332 803,252.5C 799.717,258.271 794.717,260.605 788,259.5C 778.777,258.801 769.61,257.635 760.5,256C 752.64,254.912 744.974,255.579 737.5,258C 735.126,260.039 733.126,262.372 731.5,265C 729.048,265.29 726.715,265.956 724.5,267C 721.012,273.796 718.512,280.963 717,288.5C 715.878,290.624 714.378,292.457 712.5,294C 704.694,296.497 696.694,298.164 688.5,299C 683.688,299.989 679.521,302.156 676,305.5C 675.48,307.289 675.813,308.956 677,310.5C 681.954,313.785 686.62,317.452 691,321.5C 691.325,323.553 690.991,325.553 690,327.5C 686.94,330.614 683.44,333.114 679.5,335C 672.943,337.778 666.276,340.278 659.5,342.5C 658.438,344.022 657.771,345.688 657.5,347.5C 656.655,346.329 655.989,344.995 655.5,343.5C 655.859,341.629 656.859,340.129 658.5,339C 667.232,336.645 675.565,333.312 683.5,329C 685.543,327.292 687.21,325.292 688.5,323C 683.379,319.547 678.546,315.714 674,311.5C 672.578,308.97 672.245,306.303 673,303.5C 677.189,299.822 682.023,297.322 687.5,296C 695.645,294.976 703.645,293.31 711.5,291C 712.701,290.097 713.535,288.931 714,287.5C 715.692,280.73 717.692,274.064 720,267.5C 722.388,264.366 725.554,262.533 729.5,262C 731.126,259.372 733.126,257.039 735.5,255C 740.826,253.087 746.326,252.254 752,252.5C 761.907,253.01 771.74,254.177 781.5,256C 785.833,256.667 790.167,256.667 794.5,256C 797.934,254.651 800.101,252.151 801,248.5C 803.055,240.273 805.722,232.273 809,224.5C 809.833,223.667 810.667,222.833 811.5,222C 820.601,221.745 828.768,218.911 836,213.5C 837.496,211.55 837.663,209.55 836.5,207.5C 830.974,206.228 825.641,204.395 820.5,202C 818.951,200.786 817.785,199.286 817,197.5C 815.977,184.173 814.977,170.84 814,157.5C 811.833,155.17 810.166,152.503 809,149.5C 805.571,147.987 802.571,148.653 800,151.5C 798.334,157.822 796.667,164.155 795,170.5C 792.265,173.406 789.432,176.072 786.5,178.5C 787.723,181.947 789.223,185.28 791,188.5C 792.939,193.527 792.939,198.527 791,203.5C 788,205.167 785.667,207.5 784,210.5C 782.569,218.43 783.069,226.263 785.5,234C 784.87,235.892 783.87,237.559 782.5,239C 777.282,240.563 771.949,240.896 766.5,240C 756.797,234.779 751.464,226.612 750.5,215.5C 750.048,213.688 748.882,212.688 747,212.5C 739.052,215.537 730.886,217.871 722.5,219.5C 719.355,219.181 716.522,218.181 714,216.5C 713.708,210.324 714.708,204.324 717,198.5C 720.333,193.167 723.667,187.833 727,182.5C 732.108,177.026 738.275,173.193 745.5,171C 746.667,169.833 747.833,168.667 749,167.5C 751.152,161.894 753.152,156.228 755,150.5C 757.895,148.392 760.561,146.059 763,143.5C 763.333,140.167 763.667,136.833 764,133.5C 766.65,126.865 770.316,120.865 775,115.5C 781.104,109.226 787.604,103.559 794.5,98.5 Z"/></g>
<g><path style="opacity:1" fill="#cdeae2" d="M 800.5,102.5 C 806.833,108.5 813.167,114.5 819.5,120.5C 832.162,133.997 844.662,147.663 857,161.5C 868.031,175.356 879.198,189.022 890.5,202.5C 897.416,212.663 904.083,222.997 910.5,233.5C 912.757,237.683 914.757,242.016 916.5,246.5C 887.529,258.493 858.529,270.493 829.5,282.5C 828.894,275.114 828.06,267.781 827,260.5C 823.42,254.779 819.587,254.446 815.5,259.5C 817.63,268.689 818.63,277.856 818.5,287C 765.367,308.989 712.033,330.489 658.5,351.5C 657.571,350.311 657.238,348.978 657.5,347.5C 657.771,345.688 658.438,344.022 659.5,342.5C 666.276,340.278 672.943,337.778 679.5,335C 683.44,333.114 686.94,330.614 690,327.5C 690.991,325.553 691.325,323.553 691,321.5C 686.62,317.452 681.954,313.785 677,310.5C 675.813,308.956 675.48,307.289 676,305.5C 679.521,302.156 683.688,299.989 688.5,299C 696.694,298.164 704.694,296.497 712.5,294C 714.378,292.457 715.878,290.624 717,288.5C 718.512,280.963 721.012,273.796 724.5,267C 726.715,265.956 729.048,265.29 731.5,265C 733.126,262.372 735.126,260.039 737.5,258C 744.974,255.579 752.64,254.912 760.5,256C 769.61,257.635 778.777,258.801 788,259.5C 794.717,260.605 799.717,258.271 803,252.5C 805.541,243.332 808.541,234.332 812,225.5C 818.225,224.377 824.392,222.877 830.5,221C 837.852,218.774 841.019,213.941 840,206.5C 835.651,203.532 830.818,201.698 825.5,201C 822.943,200.315 821.109,198.815 820,196.5C 819,183.167 818,169.833 817,156.5C 814.63,153.392 812.63,150.059 811,146.5C 805.366,144.373 800.699,145.707 797,150.5C 795.487,156.932 793.653,163.265 791.5,169.5C 789.507,171.499 787.173,172.999 784.5,174C 783.426,174.739 782.759,175.739 782.5,177C 785.555,183.269 787.888,189.769 789.5,196.5C 789.333,197.833 789.167,199.167 789,200.5C 782.584,204.493 779.418,210.327 779.5,218C 781.112,224.141 781.445,230.308 780.5,236.5C 773.503,238.581 767.17,237.415 761.5,233C 756.74,226.386 753.74,219.053 752.5,211C 749.594,209.682 746.594,209.348 743.5,210C 736.521,212.913 729.355,215.079 722,216.5C 720.333,215.833 718.667,215.167 717,214.5C 717.189,209.398 718.189,204.398 720,199.5C 723,194.833 726,190.167 729,185.5C 734.566,179.962 741.066,175.795 748.5,173C 750.359,171.442 751.859,169.609 753,167.5C 754.656,162.54 756.156,157.54 757.5,152.5C 760.609,150.525 763.443,148.192 766,145.5C 766.333,141.833 766.667,138.167 767,134.5C 773.844,120.487 784.01,109.487 797.5,101.5C 798.417,102.127 799.417,102.461 800.5,102.5 Z"/></g>
<g><path style="opacity:1" fill="#7b888a" d="M 819.5,120.5 C 832.775,131.941 845.275,144.275 857,157.5C 869.159,171.845 880.326,186.845 890.5,202.5C 879.198,189.022 868.031,175.356 857,161.5C 844.662,147.663 832.162,133.997 819.5,120.5 Z"/></g>
<g><path style="opacity:1" fill="#fefffe" d="M 1297.5,136.5 C 1296.82,138.176 1295.48,138.843 1293.5,138.5C 1294.18,136.824 1295.52,136.157 1297.5,136.5 Z"/></g>
<g><path style="opacity:1" fill="#000000" d="M 1297.5,136.5 C 1298.4,137.209 1298.74,138.209 1298.5,139.5C 1297.07,139.421 1295.74,139.754 1294.5,140.5C 1293.7,140.043 1293.37,139.376 1293.5,138.5C 1295.48,138.843 1296.82,138.176 1297.5,136.5 Z"/></g>
<g><path style="opacity:1" fill="#22100f" d="M 1296.5,141.5 C 1297.21,140.596 1298.21,140.263 1299.5,140.5C 1300.24,142.696 1300.58,144.696 1300.5,146.5C 1299,146.989 1297.67,147.655 1296.5,148.5C 1295.66,148.158 1295.33,147.492 1295.5,146.5C 1295.5,146.167 1295.5,145.833 1295.5,145.5C 1296.21,144.596 1297.21,144.263 1298.5,144.5C 1298.71,142.821 1298.05,141.821 1296.5,141.5 Z"/></g>
<g><path style="opacity:1" fill="#000000" d="M 1296.5,141.5 C 1295.72,142.156 1295.06,142.989 1294.5,144C 1294.57,144.765 1294.9,145.265 1295.5,145.5C 1295.5,145.833 1295.5,146.167 1295.5,146.5C 1293.74,145.448 1293.08,143.781 1293.5,141.5C 1294.5,141.5 1295.5,141.5 1296.5,141.5 Z"/></g>
<g><path style="opacity:1" fill="#fefffe" d="M 1296.5,141.5 C 1298.05,141.821 1298.71,142.821 1298.5,144.5C 1297.21,144.263 1296.21,144.596 1295.5,145.5C 1294.9,145.265 1294.57,144.765 1294.5,144C 1295.06,142.989 1295.72,142.156 1296.5,141.5 Z"/></g>
<g><path style="opacity:1" fill="#7b888a" d="M 265.5,474.5 C 264.791,475.404 263.791,475.737 262.5,475.5C 263.325,465.54 265.492,455.873 269,446.5C 268.396,439.178 270.063,432.512 274,426.5C 276.136,419.758 278.469,413.091 281,406.5C 282.339,404.335 283.839,402.335 285.5,400.5C 284.447,395.867 284.281,391.201 285,386.5C 286.864,383.793 289.364,382.959 292.5,384C 297.915,386.916 302.915,390.416 307.5,394.5C 312.082,386.334 316.915,378.334 322,370.5C 325.416,366.413 329.416,363.08 334,360.5C 336.79,355.083 339.957,349.916 343.5,345C 352.134,341.027 360.134,342.027 367.5,348C 368.5,348.667 369.5,348.667 370.5,348C 375.511,340.966 380.511,333.966 385.5,327C 385.043,326.586 384.709,326.086 384.5,325.5C 377.438,325.015 370.605,323.682 364,321.5C 363.125,320.127 362.625,318.627 362.5,317C 365.605,307.441 370.938,299.441 378.5,293C 390.088,291.35 401.421,288.683 412.5,285C 419.378,277.475 419.878,269.642 414,261.5C 407.486,257.075 401.819,251.741 397,245.5C 395.972,242.09 395.472,238.59 395.5,235C 396.591,229.085 396.424,223.252 395,217.5C 391.333,215.167 388.333,212.167 386,208.5C 380.91,213.199 376.41,218.366 372.5,224C 366.786,226.403 362.286,224.903 359,219.5C 357.774,216.048 356.274,212.715 354.5,209.5C 344.99,205.828 335.823,201.494 327,196.5C 324.421,198.534 322.754,201.201 322,204.5C 320.186,210.715 319.02,217.048 318.5,223.5C 321.241,234.704 323.407,246.037 325,257.5C 325.785,263.654 325.118,269.654 323,275.5C 320.667,277.5 318.333,279.5 316,281.5C 313.465,287.408 310.298,292.908 306.5,298C 291.479,299.634 285.312,292.8 288,277.5C 289.645,272.23 291.478,267.063 293.5,262C 291.74,258.945 289.073,257.112 285.5,256.5C 279.485,258.51 273.485,260.51 267.5,262.5C 260.146,260.562 252.812,258.395 245.5,256C 244.54,254.581 243.707,253.081 243,251.5C 241.719,243.208 239.885,235.042 237.5,227C 238.115,224.485 239.115,222.152 240.5,220C 247.246,217.758 253.579,214.758 259.5,211C 264.554,205.946 269.554,200.946 274.5,196C 284.709,192.597 295.043,189.597 305.5,187C 309.428,185.407 311.928,182.573 313,178.5C 313.506,171.788 314.339,165.122 315.5,158.5C 315.114,155.33 313.78,152.663 311.5,150.5C 306.869,149.338 302.202,149.172 297.5,150C 296.072,152.185 294.405,154.185 292.5,156C 287.401,156.93 282.401,158.263 277.5,160C 272.317,163.76 267.317,167.76 262.5,172C 252.68,176.41 243.014,181.077 233.5,186C 228.167,186.667 222.833,186.667 217.5,186C 209.586,184.15 201.586,182.817 193.5,182C 186.364,179.267 179.698,175.767 173.5,171.5C 174.167,170.167 175.167,169.167 176.5,168.5C 182.159,173.001 188.492,176.501 195.5,179C 203.232,179.946 210.898,181.28 218.5,183C 223.167,183.667 227.833,183.667 232.5,183C 242.19,177.488 252.19,172.488 262.5,168C 266.5,164.667 270.5,161.333 274.5,158C 279.52,155.373 284.853,153.873 290.5,153.5C 292.17,150.965 294.17,148.799 296.5,147C 301.833,146.333 307.167,146.333 312.5,147C 316.213,149.925 318.213,153.758 318.5,158.5C 317.42,165.47 316.587,172.47 316,179.5C 315.036,183.468 312.869,186.635 309.5,189C 298.764,191.801 288.098,194.801 277.5,198C 272.061,202.527 267.061,207.527 262.5,213C 256.824,217.338 250.49,220.338 243.5,222C 242.034,223.552 241.034,225.386 240.5,227.5C 243.434,234.902 245.267,242.569 246,250.5C 246.465,251.931 247.299,253.097 248.5,254C 255.017,255.413 261.351,257.246 267.5,259.5C 273.307,256.931 279.307,254.931 285.5,253.5C 291.076,253.914 294.742,256.747 296.5,262C 293.911,268.842 291.911,275.842 290.5,283C 290.329,286.129 291.162,288.963 293,291.5C 296.614,295.778 300.781,296.778 305.5,294.5C 308.577,288.751 311.744,283.085 315,277.5C 320.591,274.155 323.091,269.155 322.5,262.5C 320.64,249.398 318.307,236.398 315.5,223.5C 315.75,215.583 317.25,207.917 320,200.5C 321.013,196.82 323.347,194.487 327,193.5C 336.451,197.81 345.951,201.976 355.5,206C 358.606,209.632 360.773,213.799 362,218.5C 363.916,220.209 366.082,221.543 368.5,222.5C 373.607,217.136 378.607,211.636 383.5,206C 385.167,205.333 386.833,205.333 388.5,206C 389.64,207.973 390.973,209.807 392.5,211.5C 396.307,212.809 398.474,215.476 399,219.5C 398.796,226.824 398.796,234.157 399,241.5C 399.667,242.833 400.333,244.167 401,245.5C 406.969,250.467 412.635,255.801 418,261.5C 422.8,270.516 421.966,279.016 415.5,287C 403.916,291.563 391.916,294.563 379.5,296C 374.896,300.603 371.062,305.77 368,311.5C 366.036,313.853 365.536,316.353 366.5,319C 372.656,320.932 378.989,321.932 385.5,322C 389.118,325.571 389.284,329.405 386,333.5C 380.404,339.093 375.57,345.26 371.5,352C 370.5,352.667 369.5,352.667 368.5,352C 364.993,349.746 361.327,347.746 357.5,346C 353.705,345.163 350.039,345.496 346.5,347C 342.792,350.91 339.958,355.41 338,360.5C 333.033,364.466 328.366,368.799 324,373.5C 319.027,381.286 314.194,389.119 309.5,397C 307.365,397.635 305.365,397.301 303.5,396C 299.587,392.254 295.254,389.087 290.5,386.5C 289.522,386.977 288.689,387.643 288,388.5C 287.854,393.843 287.854,399.176 288,404.5C 287,405.167 286,405.833 285,406.5C 281.381,416.032 277.381,425.365 273,434.5C 272.667,438.833 272.333,443.167 272,447.5C 268.551,456.197 266.384,465.197 265.5,474.5 Z"/></g>
<g><path style="opacity:1" fill="#fefffe" d="M 1300.5,146.5 C 1300.5,147.5 1300.5,148.5 1300.5,149.5C 1299.04,149.567 1297.71,149.234 1296.5,148.5C 1297.67,147.655 1299,146.989 1300.5,146.5 Z"/></g>
<g><path style="opacity:1" fill="#cdeae2" d="M 262.5,475.5 C 260.958,476.301 259.292,476.634 257.5,476.5C 255.53,474.353 253.697,472.02 252,469.5C 250.202,460.857 248.036,452.357 245.5,444C 239.638,442.204 233.971,442.871 228.5,446C 219.833,446.333 211.167,446.667 202.5,447C 199.992,449.69 197.992,452.69 196.5,456C 192.437,456.038 188.603,456.872 185,458.5C 183,463.167 181,467.833 179,472.5C 172.931,477.542 170.764,483.876 172.5,491.5C 172.281,493.693 171.615,495.693 170.5,497.5C 157.421,499.916 144.421,502.582 131.5,505.5C 131.138,497.938 129.638,490.605 127,483.5C 122.014,470.695 115.848,458.528 108.5,447C 104.726,445.817 101.559,446.651 99,449.5C 95.7281,457.139 95.7281,464.806 99,472.5C 104.129,480.424 108.462,488.758 112,497.5C 112.946,499.956 112.446,501.956 110.5,503.5C 105.639,501.82 101.139,499.486 97,496.5C 95.8099,492.619 95.1432,488.619 95,484.5C 94.2754,482.051 93.2754,479.717 92,477.5C 86.634,471.304 81.134,465.304 75.5,459.5C 75.1945,450.083 75.5279,440.75 76.5,431.5C 80.5508,398.82 85.5508,366.154 91.5,333.5C 107.247,273.335 134.581,219.335 173.5,171.5C 179.698,175.767 186.364,179.267 193.5,182C 201.586,182.817 209.586,184.15 217.5,186C 222.833,186.667 228.167,186.667 233.5,186C 243.014,181.077 252.68,176.41 262.5,172C 267.317,167.76 272.317,163.76 277.5,160C 282.401,158.263 287.401,156.93 292.5,156C 294.405,154.185 296.072,152.185 297.5,150C 302.202,149.172 306.869,149.338 311.5,150.5C 313.78,152.663 315.114,155.33 315.5,158.5C 314.339,165.122 313.506,171.788 313,178.5C 311.928,182.573 309.428,185.407 305.5,187C 295.043,189.597 284.709,192.597 274.5,196C 269.554,200.946 264.554,205.946 259.5,211C 253.579,214.758 247.246,217.758 240.5,220C 239.115,222.152 238.115,224.485 237.5,227C 239.885,235.042 241.719,243.208 243,251.5C 243.707,253.081 244.54,254.581 245.5,256C 252.812,258.395 260.146,260.562 267.5,262.5C 273.485,260.51 279.485,258.51 285.5,256.5C 289.073,257.112 291.74,258.945 293.5,262C 291.478,267.063 289.645,272.23 288,277.5C 285.312,292.8 291.479,299.634 306.5,298C 310.298,292.908 313.465,287.408 316,281.5C 318.333,279.5 320.667,277.5 323,275.5C 325.118,269.654 325.785,263.654 325,257.5C 323.407,246.037 321.241,234.704 318.5,223.5C 319.02,217.048 320.186,210.715 322,204.5C 322.754,201.201 324.421,198.534 327,196.5C 335.823,201.494 344.99,205.828 354.5,209.5C 356.274,212.715 357.774,216.048 359,219.5C 362.286,224.903 366.786,226.403 372.5,224C 376.41,218.366 380.91,213.199 386,208.5C 388.333,212.167 391.333,215.167 395,217.5C 396.424,223.252 396.591,229.085 395.5,235C 395.472,238.59 395.972,242.09 397,245.5C 401.819,251.741 407.486,257.075 414,261.5C 419.878,269.642 419.378,277.475 412.5,285C 401.421,288.683 390.088,291.35 378.5,293C 370.938,299.441 365.605,307.441 362.5,317C 362.625,318.627 363.125,320.127 364,321.5C 370.605,323.682 377.438,325.015 384.5,325.5C 384.709,326.086 385.043,326.586 385.5,327C 380.511,333.966 375.511,340.966 370.5,348C 369.5,348.667 368.5,348.667 367.5,348C 360.134,342.027 352.134,341.027 343.5,345C 339.957,349.916 336.79,355.083 334,360.5C 329.416,363.08 325.416,366.413 322,370.5C 316.915,378.334 312.082,386.334 307.5,394.5C 302.915,390.416 297.915,386.916 292.5,384C 289.364,382.959 286.864,383.793 285,386.5C 284.281,391.201 284.447,395.867 285.5,400.5C 283.839,402.335 282.339,404.335 281,406.5C 278.469,413.091 276.136,419.758 274,426.5C 270.063,432.512 268.396,439.178 269,446.5C 265.492,455.873 263.325,465.54 262.5,475.5 Z"/></g>
<g><path style="opacity:1" fill="#000000" d="M 928.5,219.5 C 926.219,219.077 924.552,219.744 923.5,221.5C 922.596,220.791 922.263,219.791 922.5,218.5C 924.735,218.205 926.735,218.539 928.5,219.5 Z"/></g>
<g><path style="opacity:1" fill="#fefffe" d="M 928.5,219.5 C 947.218,229.872 964.884,241.872 981.5,255.5C 981.5,256.167 981.5,256.833 981.5,257.5C 976.867,259.483 972.534,261.983 968.5,265C 967.167,265.667 965.833,265.667 964.5,265C 949.192,251.865 935.526,237.365 923.5,221.5C 924.552,219.744 926.219,219.077 928.5,219.5 Z"/></g>
<g><path style="opacity:1" fill="#516357" d="M 910.5,233.5 C 913.514,237.005 916.181,240.838 918.5,245C 917.956,245.717 917.289,246.217 916.5,246.5C 914.757,242.016 912.757,237.683 910.5,233.5 Z"/></g>
<g><path style="opacity:1" fill="#fefffe" d="M 916.5,250.5 C 918.017,250.511 919.184,251.177 920,252.5C 932.577,276.89 942.41,302.39 949.5,329C 948.728,330.221 947.728,331.221 946.5,332C 808.717,405.384 672.384,481.051 537.5,559C 427.848,627.733 320.348,699.567 215,774.5C 194.009,754.184 174.509,732.684 156.5,710C 171.406,700.215 187.406,692.548 204.5,687C 215.7,682.988 227.034,679.488 238.5,676.5C 238.5,675.167 238.5,673.833 238.5,672.5C 208.137,679.269 179.637,690.602 153,706.5C 145.588,696.676 138.421,686.676 131.5,676.5C 157.958,663.122 184.625,650.122 211.5,637.5C 212.568,635.813 212.401,634.146 211,632.5C 183.706,646.399 156.206,659.566 128.5,672C 122.414,662.993 117.581,653.493 114,643.5C 139.103,631.041 162.603,616.208 184.5,599C 183.789,597.745 182.956,596.579 182,595.5C 160.245,612.571 136.912,627.237 112,639.5C 100.893,613.085 92.5592,585.751 87,557.5C 84.3899,544.171 81.8899,530.837 79.5,517.5C 118.552,512.456 157.219,505.29 195.5,496C 305.84,471.165 414.84,441.499 522.5,407C 564.105,392.188 605.438,376.688 646.5,360.5C 649.246,386.132 652.412,411.799 656,437.5C 657.406,441.429 660.24,442.929 664.5,442C 665.416,441.626 666.25,441.126 667,440.5C 669.658,425.192 674.325,410.525 681,396.5C 682.667,393.833 684.333,393.833 686,396.5C 688.33,402.822 690.663,409.156 693,415.5C 696.323,424.077 702.156,427.077 710.5,424.5C 711.415,423.672 712.081,422.672 712.5,421.5C 710.481,419.202 707.981,417.536 705,416.5C 702.228,407.622 698.895,398.955 695,390.5C 690.729,385.112 685.229,382.612 678.5,383C 677.213,384.41 676.046,385.91 675,387.5C 670.794,397.788 666.794,408.122 663,418.5C 661.224,411.982 660.224,405.315 660,398.5C 659.476,384.165 658.976,369.831 658.5,355.5C 712.196,335.155 765.529,313.822 818.5,291.5C 820.907,307.754 822.74,324.087 824,340.5C 825.243,348.054 827.243,355.388 830,362.5C 832.002,365.887 834.835,367.387 838.5,367C 839.516,366.481 840.182,365.647 840.5,364.5C 838.9,360.199 837.4,355.865 836,351.5C 831.786,330.826 829.286,310.159 828.5,289.5C 828.833,288.833 829.167,288.167 829.5,287.5C 858.705,275.391 887.705,263.057 916.5,250.5 Z"/></g>
<g><path style="opacity:1" fill="#000000" d="M 981.5,255.5 C 983.933,256.548 983.933,257.214 981.5,257.5C 981.5,256.833 981.5,256.167 981.5,255.5 Z"/></g>
<g><path style="opacity:1" fill="#000000" d="M 992.5,284.5 C 992.56,283.957 992.893,283.624 993.5,283.5C 994.797,285.973 994.797,288.307 993.5,290.5C 993.795,288.265 993.461,286.265 992.5,284.5 Z"/></g>
<g><path style="opacity:1" fill="#fefffe" d="M 992.5,284.5 C 993.461,286.265 993.795,288.265 993.5,290.5C 992.344,302.348 991.177,314.348 990,326.5C 989.199,333.671 987.699,340.671 985.5,347.5C 984.391,347.443 983.391,347.11 982.5,346.5C 980.639,334.415 979.305,322.415 978.5,310.5C 978.334,305.156 978.501,299.823 979,294.5C 979.717,293.956 980.217,293.289 980.5,292.5C 984.795,290.192 988.795,287.526 992.5,284.5 Z"/></g>
<g><path style="opacity:1" fill="#000000" d="M 980.5,292.5 C 980.217,293.289 979.717,293.956 979,294.5C 978.501,299.823 978.334,305.156 978.5,310.5C 977.348,305.015 977.182,299.349 978,293.5C 978.671,292.748 979.504,292.414 980.5,292.5 Z"/></g>
<g><path style="opacity:1" fill="#000000" d="M 923.5,294.5 C 925.973,294.604 926.639,295.604 925.5,297.5C 899.425,311.636 872.092,322.636 843.5,330.5C 843.5,329.5 843.5,328.5 843.5,327.5C 871.396,319.21 898.063,308.21 923.5,294.5 Z"/></g>
<g><path style="opacity:1" fill="#000000" d="M 895.5,295.5 C 897.103,295.312 898.437,295.812 899.5,297C 888.014,302.328 876.014,306.162 863.5,308.5C 863.5,307.5 863.5,306.5 863.5,305.5C 874.547,303.077 885.213,299.744 895.5,295.5 Z"/></g>
<g><path style="opacity:1" fill="#000000" d="M 906.5,315.5 C 907.5,315.5 908.5,315.5 909.5,315.5C 909.67,316.822 909.337,317.989 908.5,319C 897.314,324.735 886.314,330.568 875.5,336.5C 875.297,334.61 875.963,333.11 877.5,332C 887.229,326.473 896.896,320.973 906.5,315.5 Z"/></g>
<g><path style="opacity:1" fill="#000000" d="M 804.5,323.5 C 807.564,323.144 810.231,323.977 812.5,326C 810.626,329.581 808.626,333.081 806.5,336.5C 809.932,340.125 811.598,344.458 811.5,349.5C 810.481,361.369 805.814,371.536 797.5,380C 789.849,384.53 783.016,383.364 777,376.5C 772.805,362.593 772.471,348.593 776,334.5C 778.339,327.938 782.839,324.771 789.5,325C 794.107,327.235 794.441,329.902 790.5,333C 794.274,332.446 797.608,330.78 800.5,328C 801.733,326.333 803.067,324.833 804.5,323.5 Z"/></g>
<g><path style="opacity:1" fill="#7b888a" d="M 91.5,333.5 C 85.5508,366.154 80.5508,398.82 76.5,431.5C 77.2293,398.053 82.2293,365.386 91.5,333.5 Z"/></g>
<g><path style="opacity:1" fill="#cdeae2" d="M 958.5,369.5 C 962.726,407.709 964.726,446.043 964.5,484.5C 964.127,493.523 963.46,502.523 962.5,511.5C 959.859,525.714 957.192,540.047 954.5,554.5C 953.833,555.833 953.167,557.167 952.5,558.5C 947.991,564.845 942.157,569.512 935,572.5C 933.289,572.561 931.956,571.894 931,570.5C 929.288,557.498 927.288,544.498 925,531.5C 917.01,511.865 910.01,491.865 904,471.5C 902.28,466.554 899.446,462.387 895.5,459C 892.044,457.877 889.21,458.71 887,461.5C 884.956,470.898 885.29,480.231 888,489.5C 895.217,504.6 901.884,519.933 908,535.5C 908.818,538.107 909.318,540.774 909.5,543.5C 907.863,550.987 908.363,558.32 911,565.5C 915.219,575.606 920.219,585.273 926,594.5C 927.848,603.151 927.848,611.818 926,620.5C 925.316,626.408 923.483,631.908 920.5,637C 910.038,638.48 900.871,642.647 893,649.5C 890.864,656.711 889.364,664.044 888.5,671.5C 889.081,676.91 890.081,682.243 891.5,687.5C 891.406,689.923 890.906,692.256 890,694.5C 874.926,714.062 860.093,733.729 845.5,753.5C 842.757,755.239 840.757,757.573 839.5,760.5C 814.058,786.96 785.724,809.626 754.5,828.5C 753.182,821.591 751.682,814.591 750,807.5C 749.333,806.167 748.667,804.833 748,803.5C 740.897,799.069 736.063,792.902 733.5,785C 733.645,784.228 733.978,783.561 734.5,783C 736.676,782.837 738.509,782.004 740,780.5C 740.562,772.177 741.229,763.844 742,755.5C 744.994,747.51 747.994,739.51 751,731.5C 754.481,711.777 754.148,692.11 750,672.5C 747.553,666.522 743.053,664.022 736.5,665C 734.879,662.834 734.045,660.334 734,657.5C 733.333,653.833 733.333,650.167 734,646.5C 736.405,637.619 739.405,628.953 743,620.5C 743.667,617.833 743.667,615.167 743,612.5C 741.933,611.809 740.766,611.309 739.5,611C 733.5,610.667 727.5,610.333 721.5,610C 711.465,607.21 701.298,605.044 691,603.5C 687.849,604.093 684.682,604.593 681.5,605C 671.264,608.952 660.931,612.619 650.5,616C 642.501,617.783 636.334,615.283 632,608.5C 619.662,590.499 608.329,571.832 598,552.5C 594.671,544.29 595.171,536.29 599.5,528.5C 658.475,494.675 717.808,461.342 777.5,428.5C 779.725,431.889 782.725,434.389 786.5,436C 800.11,434.48 813.777,433.48 827.5,433C 839.765,437.199 852.098,441.199 864.5,445C 875.994,446.834 886.161,444.001 895,436.5C 896.861,434.112 898.194,431.446 899,428.5C 900.522,419.462 900.522,410.462 899,401.5C 896.471,397.111 892.637,395.445 887.5,396.5C 874.674,397.785 862.674,395.119 851.5,388.5C 884.278,370.274 917.278,352.274 950.5,334.5C 954.269,345.91 956.936,357.577 958.5,369.5 Z"/></g>
<g><path style="opacity:1" fill="#fefffe" d="M 785.5,339.5 C 790.345,341.802 795.345,342.635 800.5,342C 801.859,353.066 799.359,363.232 793,372.5C 788.792,377.999 785.792,377.332 784,370.5C 781.934,360.035 782.434,349.701 785.5,339.5 Z"/></g>
<g><path style="opacity:1" fill="#000000" d="M 734.5,346.5 C 746.906,346.062 754.072,352.062 756,364.5C 758.224,381.451 753.724,396.284 742.5,409C 735.05,414.08 728.216,413.247 722,406.5C 714.31,389.07 715.31,372.07 725,355.5C 728.062,352.268 731.229,349.268 734.5,346.5 Z"/></g>
<g><path style="opacity:1" fill="#000000" d="M 982.5,346.5 C 983.391,347.11 984.391,347.443 985.5,347.5C 984.053,348.885 983.053,348.552 982.5,346.5 Z"/></g>
<g><path style="opacity:1" fill="#fefffe" d="M 737.5,356.5 C 739.722,356.178 741.556,356.845 743,358.5C 748.025,372.051 747.359,385.384 741,398.5C 738.838,402.368 735.672,403.868 731.5,403C 730.299,402.097 729.465,400.931 729,399.5C 726.358,385.61 728.025,372.277 734,359.5C 735.145,358.364 736.312,357.364 737.5,356.5 Z"/></g>
<g><path style="opacity:1" fill="#7b888a" d="M 958.5,369.5 C 966.004,407.566 968.004,445.899 964.5,484.5C 964.726,446.043 962.726,407.709 958.5,369.5 Z"/></g>
<g><path style="opacity:1" fill="#7b888a" d="M 851.5,388.5 C 862.674,395.119 874.674,397.785 887.5,396.5C 892.637,395.445 896.471,397.111 899,401.5C 900.522,410.462 900.522,419.462 899,428.5C 898.194,431.446 896.861,434.112 895,436.5C 886.161,444.001 875.994,446.834 864.5,445C 852.098,441.199 839.765,437.199 827.5,433C 813.777,433.48 800.11,434.48 786.5,436C 782.725,434.389 779.725,431.889 777.5,428.5C 778.391,427.89 779.391,427.557 780.5,427.5C 782.296,428.793 783.963,430.293 785.5,432C 787.534,433.006 789.7,433.506 792,433.5C 804.02,430.639 816.187,429.473 828.5,430C 840.902,433.801 853.235,437.801 865.5,442C 888.061,444.231 898.728,434.064 897.5,411.5C 897.462,407.165 896.129,403.332 893.5,400C 877.364,402.048 862.364,398.881 848.5,390.5C 848.973,389.094 849.973,388.427 851.5,388.5 Z"/></g>
<g><path style="opacity:1" fill="#cee3e7" d="M 848.5,390.5 C 862.364,398.881 877.364,402.048 893.5,400C 896.129,403.332 897.462,407.165 897.5,411.5C 898.728,434.064 888.061,444.231 865.5,442C 853.235,437.801 840.902,433.801 828.5,430C 816.187,429.473 804.02,430.639 792,433.5C 789.7,433.506 787.534,433.006 785.5,432C 783.963,430.293 782.296,428.793 780.5,427.5C 802.839,414.662 825.506,402.329 848.5,390.5 Z"/></g>
<g><path style="opacity:1" fill="#000000" d="M 612.5,405.5 C 625.999,404.49 631.499,410.49 629,423.5C 626.501,424.798 624.167,424.464 622,422.5C 621.604,419.304 620.438,416.47 618.5,414C 616.097,413.37 614.263,414.203 613,416.5C 607.461,429.032 606.128,442.032 609,455.5C 614.229,460.916 619.229,460.583 624,454.5C 627.139,447.211 630.972,441.045 635.5,436C 638.291,435.965 639.624,437.465 639.5,440.5C 637.349,450.512 632.349,458.679 624.5,465C 616.06,470.606 608.893,469.44 603,461.5C 595.221,444.433 595.888,427.766 605,411.5C 607.478,409.361 609.978,407.361 612.5,405.5 Z"/></g>
<g><path style="opacity:1" fill="#000000" d="M 565.5,419.5 C 578.817,419.902 583.65,426.569 580,439.5C 578.637,445.276 575.637,446.61 571,443.5C 569.633,444.524 568.8,444.024 568.5,442C 570.618,437.507 570.784,433.007 569,428.5C 557.292,438.326 552.292,450.659 554,465.5C 554.374,466.416 554.874,467.25 555.5,468C 564.137,469.326 572.471,471.659 580.5,475C 588.29,480.168 588.29,485.502 580.5,491C 575.294,494.604 569.628,497.104 563.5,498.5C 560.774,498.318 558.107,497.818 555.5,497C 553.993,496.163 553.493,494.996 554,493.5C 561.873,491.151 568.706,487.151 574.5,481.5C 574.291,480.914 573.957,480.414 573.5,480C 562.313,480.055 552.813,476.222 545,468.5C 543,461.5 543,454.5 545,447.5C 549.204,436.03 556.038,426.696 565.5,419.5 Z"/></g>
<g><path style="opacity:1" fill="#7b888a" d="M 257.5,476.5 C 256.432,477.434 255.099,477.768 253.5,477.5C 252.223,475.05 250.723,472.717 249,470.5C 247.012,462.908 245.346,455.241 244,447.5C 243.5,447 243,446.5 242.5,446C 238.041,446.146 233.708,447.146 229.5,449C 221.167,449.333 212.833,449.667 204.5,450C 202.5,453 200.5,456 198.5,459C 195.167,459.333 191.833,459.667 188.5,460C 185.497,467.84 181.33,475.006 176,481.5C 175.5,483 175,484.5 174.5,486C 175.367,489.105 175.701,492.272 175.5,495.5C 173.972,496.309 172.306,496.976 170.5,497.5C 171.615,495.693 172.281,493.693 172.5,491.5C 170.764,483.876 172.931,477.542 179,472.5C 181,467.833 183,463.167 185,458.5C 188.603,456.872 192.437,456.038 196.5,456C 197.992,452.69 199.992,449.69 202.5,447C 211.167,446.667 219.833,446.333 228.5,446C 233.971,442.871 239.638,442.204 245.5,444C 248.036,452.357 250.202,460.857 252,469.5C 253.697,472.02 255.53,474.353 257.5,476.5 Z"/></g>
<g><path style="opacity:1" fill="#cee3e7" d="M 253.5,477.5 C 227.822,484.418 201.822,490.418 175.5,495.5C 175.701,492.272 175.367,489.105 174.5,486C 175,484.5 175.5,483 176,481.5C 181.33,475.006 185.497,467.84 188.5,460C 191.833,459.667 195.167,459.333 198.5,459C 200.5,456 202.5,453 204.5,450C 212.833,449.667 221.167,449.333 229.5,449C 233.708,447.146 238.041,446.146 242.5,446C 243,446.5 243.5,447 244,447.5C 245.346,455.241 247.012,462.908 249,470.5C 250.723,472.717 252.223,475.05 253.5,477.5 Z"/></g>
<g><path style="opacity:1" fill="#7c888b" d="M 131.5,505.5 C 130.5,505.5 129.5,505.5 128.5,505.5C 125.165,485.82 118.165,467.486 107.5,450.5C 105.389,449.152 103.555,449.485 102,451.5C 98.8227,458.122 98.8227,464.789 102,471.5C 106.253,478.337 110.253,485.337 114,492.5C 115.651,496.658 115.817,500.825 114.5,505C 106.84,506.393 100.173,504.226 94.5,498.5C 93.1946,492.465 91.6946,486.465 90,480.5C 85.9968,475.331 81.4968,470.664 76.5,466.5C 75.5318,464.393 75.1984,462.059 75.5,459.5C 81.134,465.304 86.634,471.304 92,477.5C 93.2754,479.717 94.2754,482.051 95,484.5C 95.1432,488.619 95.8099,492.619 97,496.5C 101.139,499.486 105.639,501.82 110.5,503.5C 112.446,501.956 112.946,499.956 112,497.5C 108.462,488.758 104.129,480.424 99,472.5C 95.7281,464.806 95.7281,457.139 99,449.5C 101.559,446.651 104.726,445.817 108.5,447C 115.848,458.528 122.014,470.695 127,483.5C 129.638,490.605 131.138,497.938 131.5,505.5 Z"/></g>
<g><path style="opacity:1" fill="#cee3e7" d="M 128.5,505.5 C 112.759,509.512 96.7592,511.679 80.5,512C 77.758,497.004 76.4247,481.837 76.5,466.5C 81.4968,470.664 85.9968,475.331 90,480.5C 91.6946,486.465 93.1946,492.465 94.5,498.5C 100.173,504.226 106.84,506.393 114.5,505C 115.817,500.825 115.651,496.658 114,492.5C 110.253,485.337 106.253,478.337 102,471.5C 98.8227,464.789 98.8227,458.122 102,451.5C 103.555,449.485 105.389,449.152 107.5,450.5C 118.165,467.486 125.165,485.82 128.5,505.5 Z"/></g>
<g><path style="opacity:1" fill="#000000" d="M 424.5,449.5 C 428.182,448.725 430.682,450.059 432,453.5C 432.346,467.183 433.013,480.85 434,494.5C 436.074,502.824 437.074,511.157 437,519.5C 439.056,530.669 442.889,541.169 448.5,551C 445.764,553.599 442.764,553.599 439.5,551C 436.44,546.828 433.94,542.328 432,537.5C 428.387,546.336 424.387,555.003 420,563.5C 410.985,572.357 404.318,570.69 400,558.5C 395.306,542.867 397.306,528.2 406,514.5C 411.082,508.376 417.582,505.042 425.5,504.5C 424.378,489.35 423.378,474.183 422.5,459C 422.422,455.636 423.089,452.47 424.5,449.5 Z"/></g>
<g><path style="opacity:1" fill="#7c888b" d="M 952.5,558.5 C 952.44,561.341 951.774,564.007 950.5,566.5C 947.191,570.309 943.191,573.142 938.5,575C 930.637,576.81 926.471,573.644 926,565.5C 926.212,549.985 923.546,534.985 918,520.5C 911.085,504.18 905.085,487.513 900,470.5C 893.424,457.888 889.591,458.555 888.5,472.5C 888.673,476.541 889.173,480.541 890,484.5C 897.275,500.717 904.275,517.051 911,533.5C 912.828,539.781 912.995,546.114 911.5,552.5C 912.038,557.32 913.205,561.987 915,566.5C 920.294,576.752 925.294,587.086 930,597.5C 930.735,608.621 929.901,619.621 927.5,630.5C 927.293,633.241 926.293,635.574 924.5,637.5C 923.373,638.122 922.373,638.955 921.5,640C 911.811,641.335 903.311,645.168 896,651.5C 893.979,658.06 892.479,664.727 891.5,671.5C 893.719,677.956 894.719,684.623 894.5,691.5C 880.445,713.897 864.112,734.564 845.5,753.5C 860.093,733.729 874.926,714.062 890,694.5C 890.906,692.256 891.406,689.923 891.5,687.5C 890.081,682.243 889.081,676.91 888.5,671.5C 889.364,664.044 890.864,656.711 893,649.5C 900.871,642.647 910.038,638.48 920.5,637C 923.483,631.908 925.316,626.408 926,620.5C 927.848,611.818 927.848,603.151 926,594.5C 920.219,585.273 915.219,575.606 911,565.5C 908.363,558.32 907.863,550.987 909.5,543.5C 909.318,540.774 908.818,538.107 908,535.5C 901.884,519.933 895.217,504.6 888,489.5C 885.29,480.231 884.956,470.898 887,461.5C 889.21,458.71 892.044,457.877 895.5,459C 899.446,462.387 902.28,466.554 904,471.5C 910.01,491.865 917.01,511.865 925,531.5C 927.288,544.498 929.288,557.498 931,570.5C 931.956,571.894 933.289,572.561 935,572.5C 942.157,569.512 947.991,564.845 952.5,558.5 Z"/></g>
<g><path style="opacity:1" fill="#cee3e7" d="M 950.5,566.5 C 945.038,588.732 937.371,610.065 927.5,630.5C 929.901,619.621 930.735,608.621 930,597.5C 925.294,587.086 920.294,576.752 915,566.5C 913.205,561.987 912.038,557.32 911.5,552.5C 912.995,546.114 912.828,539.781 911,533.5C 904.275,517.051 897.275,500.717 890,484.5C 889.173,480.541 888.673,476.541 888.5,472.5C 889.591,458.555 893.424,457.888 900,470.5C 905.085,487.513 911.085,504.18 918,520.5C 923.546,534.985 926.212,549.985 926,565.5C 926.471,573.644 930.637,576.81 938.5,575C 943.191,573.142 947.191,570.309 950.5,566.5 Z"/></g>
<g><path style="opacity:1" fill="#000000" d="M 483.5,472.5 C 486.777,472.216 489.943,472.549 493,473.5C 493.853,483.847 494.853,494.181 496,504.5C 496.167,526.533 497.001,548.533 498.5,570.5C 498.304,572.286 497.471,573.619 496,574.5C 491.896,573.785 489.229,571.452 488,567.5C 487.682,563.805 487.182,560.138 486.5,556.5C 487.163,540.223 487.33,523.889 487,507.5C 485.13,515.317 482.796,522.983 480,530.5C 476.817,532.523 473.317,533.023 469.5,532C 466.707,528.919 464.54,525.419 463,521.5C 459.993,512.478 456.993,503.478 454,494.5C 451.187,492.85 448.687,490.85 446.5,488.5C 451.489,482.014 456.656,482.014 462,488.5C 466.608,499.589 470.608,510.922 474,522.5C 480.315,506.426 483.481,489.759 483.5,472.5 Z"/></g>
<g><path style="opacity:1" fill="#000000" d="M 275.5,511.5 C 280.972,511.407 285.805,513.074 290,516.5C 300.392,542.343 310.392,568.343 320,594.5C 322.782,601.23 325.949,607.73 329.5,614C 325.671,617.772 321.837,617.938 318,614.5C 312.832,602.169 307.166,590.169 301,578.5C 292.1,583.032 283.6,588.199 275.5,594C 274.299,594.903 273.465,596.069 273,597.5C 270.886,608.425 270.386,619.425 271.5,630.5C 270.936,636.545 270.102,642.545 269,648.5C 265.314,648.377 262.647,646.71 261,643.5C 261.44,627.815 261.273,612.149 260.5,596.5C 261.33,594.172 262.163,591.838 263,589.5C 264.159,568.085 266.159,546.752 269,525.5C 269.687,521.42 270.687,517.42 272,513.5C 273.302,512.915 274.469,512.249 275.5,511.5 Z"/></g>
<g><path style="opacity:1" fill="#516357" d="M 962.5,511.5 C 962.419,521.562 961.585,531.562 960,541.5C 958.827,546.209 956.993,550.542 954.5,554.5C 957.192,540.047 959.859,525.714 962.5,511.5 Z"/></g>
<g><path style="opacity:1" fill="#fefffe" d="M 421.5,513.5 C 422.833,513.5 424.167,513.5 425.5,513.5C 425.285,528.028 421.785,541.695 415,554.5C 413.649,556.019 412.149,557.352 410.5,558.5C 409.029,557.619 408.196,556.286 408,554.5C 406.009,542.123 408.009,530.456 414,519.5C 416.114,516.879 418.614,514.879 421.5,513.5 Z"/></g>
<g><path style="opacity:1" fill="#fefffe" d="M 281.5,522.5 C 288.148,537.649 294.148,553.149 299.5,569C 297.553,568.464 295.553,568.798 293.5,570C 287.282,575.219 280.782,580.052 274,584.5C 274.554,570.495 275.554,556.495 277,542.5C 277.93,535.683 279.43,529.017 281.5,522.5 Z"/></g>
<g><path style="opacity:1" fill="#7b888a" d="M 599.5,528.5 C 595.171,536.29 594.671,544.29 598,552.5C 608.329,571.832 619.662,590.499 632,608.5C 636.334,615.283 642.501,617.783 650.5,616C 660.931,612.619 671.264,608.952 681.5,605C 684.682,604.593 687.849,604.093 691,603.5C 701.298,605.044 711.465,607.21 721.5,610C 727.5,610.333 733.5,610.667 739.5,611C 740.766,611.309 741.933,611.809 743,612.5C 743.667,615.167 743.667,617.833 743,620.5C 739.405,628.953 736.405,637.619 734,646.5C 733.333,650.167 733.333,653.833 734,657.5C 734.045,660.334 734.879,662.834 736.5,665C 743.053,664.022 747.553,666.522 750,672.5C 754.148,692.11 754.481,711.777 751,731.5C 747.994,739.51 744.994,747.51 742,755.5C 741.229,763.844 740.562,772.177 740,780.5C 738.509,782.004 736.676,782.837 734.5,783C 733.978,783.561 733.645,784.228 733.5,785C 736.063,792.902 740.897,799.069 748,803.5C 748.667,804.833 749.333,806.167 750,807.5C 751.682,814.591 753.182,821.591 754.5,828.5C 753.205,829.488 751.872,830.488 750.5,831.5C 750.534,822.091 748.701,813.091 745,804.5C 735.53,799.575 731.03,791.908 731.5,781.5C 732.912,780.194 734.579,779.36 736.5,779C 737.126,778.25 737.626,777.416 738,776.5C 737.083,768.812 737.417,761.145 739,753.5C 742,745.833 745,738.167 748,730.5C 751.236,712.849 751.236,695.183 748,677.5C 747.152,674.302 745.652,671.469 743.5,669C 735.666,670.811 731.499,667.645 731,659.5C 730.333,654.833 730.333,650.167 731,645.5C 733.596,636.379 736.596,627.379 740,618.5C 740.781,617.056 740.614,615.723 739.5,614.5C 733.217,613.706 726.884,613.206 720.5,613C 710.71,610.594 700.877,608.427 691,606.5C 688.205,607.185 685.372,607.685 682.5,608C 672.296,612.068 661.963,615.734 651.5,619C 642.69,621.064 635.523,618.564 630,611.5C 618.208,594.364 607.208,576.698 597,558.5C 591.783,549.358 591.283,540.024 595.5,530.5C 596.514,529.326 597.847,528.66 599.5,528.5 Z"/></g>
<g><path style="opacity:1" fill="#cee3e7" d="M 595.5,530.5 C 591.283,540.024 591.783,549.358 597,558.5C 607.208,576.698 618.208,594.364 630,611.5C 635.523,618.564 642.69,621.064 651.5,619C 661.963,615.734 672.296,612.068 682.5,608C 685.372,607.685 688.205,607.185 691,606.5C 700.877,608.427 710.71,610.594 720.5,613C 726.884,613.206 733.217,613.706 739.5,614.5C 740.614,615.723 740.781,617.056 740,618.5C 736.596,627.379 733.596,636.379 731,645.5C 730.333,650.167 730.333,654.833 731,659.5C 731.499,667.645 735.666,670.811 743.5,669C 745.652,671.469 747.152,674.302 748,677.5C 751.236,695.183 751.236,712.849 748,730.5C 745,738.167 742,745.833 739,753.5C 737.417,761.145 737.083,768.812 738,776.5C 737.626,777.416 737.126,778.25 736.5,779C 734.579,779.36 732.912,780.194 731.5,781.5C 731.03,791.908 735.53,799.575 745,804.5C 748.701,813.091 750.534,822.091 750.5,831.5C 640.817,895.097 524.484,910.93 401.5,879C 386.082,874.917 371.082,869.75 356.5,863.5C 357.655,861.175 359.655,860.008 362.5,860C 370.394,860.132 378.061,858.965 385.5,856.5C 387.303,857.137 388.636,858.303 389.5,860C 390.635,860.749 391.635,860.583 392.5,859.5C 401.01,848.372 398.677,840.539 385.5,836C 383.384,834.829 382.718,833.329 383.5,831.5C 386.443,830.756 389.443,830.256 392.5,830C 393.931,829.535 395.097,828.701 396,827.5C 399.201,831.036 402.701,834.203 406.5,837C 411.369,835.389 416.369,835.055 421.5,836C 423.652,833.531 425.152,830.698 426,827.5C 425.045,813.552 428.045,800.552 435,788.5C 436.731,786.383 438.898,784.883 441.5,784C 452.842,783.276 463.842,780.943 474.5,777C 476.09,775.954 477.59,774.787 479,773.5C 479.649,765.765 479.149,758.098 477.5,750.5C 477.899,744.696 479.732,739.363 483,734.5C 488.667,726.833 494.333,719.167 500,711.5C 503.812,704.578 505.812,697.244 506,689.5C 503.062,682.456 499.229,675.956 494.5,670C 490.04,668.032 485.373,666.698 480.5,666C 471.897,660.865 462.897,656.532 453.5,653C 449.221,648.721 444.887,644.387 440.5,640C 436.114,637.594 431.448,636.094 426.5,635.5C 481.502,598.527 537.835,563.527 595.5,530.5 Z"/></g>
<g><path style="opacity:1" fill="#000000" d="M 364.5,538.5 C 368.978,538.437 372.978,539.77 376.5,542.5C 381.004,548.509 384.171,555.176 386,562.5C 389.142,564.314 391.975,566.481 394.5,569C 391.677,572.956 388.01,573.956 383.5,572C 378.212,567.714 375.045,562.214 374,555.5C 372.021,548.645 369.021,547.978 365,553.5C 361,560.167 357,566.833 353,573.5C 349.859,579.116 347.859,585.116 347,591.5C 343.756,592.692 340.59,592.359 337.5,590.5C 334.372,585.364 333.372,579.864 334.5,574C 333.887,563.409 333.054,552.909 332,542.5C 333.466,540.675 335.299,540.175 337.5,541C 343.497,543.684 346.164,548.351 345.5,555C 344.249,559.276 344.416,563.443 346,567.5C 350.68,556.788 356.846,547.122 364.5,538.5 Z"/></g>
<g><path style="opacity:1" fill="#7b888a" d="M 426.5,635.5 C 431.448,636.094 436.114,637.594 440.5,640C 444.887,644.387 449.221,648.721 453.5,653C 462.897,656.532 471.897,660.865 480.5,666C 485.373,666.698 490.04,668.032 494.5,670C 499.229,675.956 503.062,682.456 506,689.5C 505.812,697.244 503.812,704.578 500,711.5C 494.333,719.167 488.667,726.833 483,734.5C 479.732,739.363 477.899,744.696 477.5,750.5C 479.149,758.098 479.649,765.765 479,773.5C 477.59,774.787 476.09,775.954 474.5,777C 463.842,780.943 452.842,783.276 441.5,784C 438.898,784.883 436.731,786.383 435,788.5C 428.045,800.552 425.045,813.552 426,827.5C 425.152,830.698 423.652,833.531 421.5,836C 416.369,835.055 411.369,835.389 406.5,837C 402.701,834.203 399.201,831.036 396,827.5C 395.097,828.701 393.931,829.535 392.5,830C 389.443,830.256 386.443,830.756 383.5,831.5C 382.718,833.329 383.384,834.829 385.5,836C 398.677,840.539 401.01,848.372 392.5,859.5C 391.635,860.583 390.635,860.749 389.5,860C 388.636,858.303 387.303,857.137 385.5,856.5C 378.061,858.965 370.394,860.132 362.5,860C 359.655,860.008 357.655,861.175 356.5,863.5C 355.391,863.443 354.391,863.11 353.5,862.5C 354.595,859.265 356.928,857.432 360.5,857C 369.02,857.044 377.353,855.878 385.5,853.5C 387.593,853.486 389.426,854.152 391,855.5C 393.425,852.562 394.425,849.228 394,845.5C 389.509,841.921 384.843,838.588 380,835.5C 379.104,832.975 379.604,830.808 381.5,829C 386.525,828.138 391.358,826.638 396,824.5C 400.608,827.436 404.941,830.77 409,834.5C 410.126,833.056 411.626,832.39 413.5,832.5C 419.023,834.503 422.19,832.503 423,826.5C 421.776,811.13 425.443,797.13 434,784.5C 436.707,782.064 439.873,780.564 443.5,780C 450.943,779.769 458.276,778.769 465.5,777C 469.363,775.819 472.863,773.986 476,771.5C 476.164,764.474 475.664,757.474 474.5,750.5C 474.398,746.307 475.231,742.307 477,738.5C 483.333,729.5 489.667,720.5 496,711.5C 499.756,705.226 502.09,698.56 503,691.5C 500.049,684.423 496.215,677.923 491.5,672C 486.493,670.775 481.493,669.441 476.5,668C 468.112,663.139 459.446,658.806 450.5,655C 446.221,650.721 441.887,646.387 437.5,642C 432.78,640.302 428.113,638.802 423.5,637.5C 424.29,636.599 425.29,635.932 426.5,635.5 Z"/></g>
<g><path style="opacity:1" fill="#cdeae2" d="M 423.5,637.5 C 428.113,638.802 432.78,640.302 437.5,642C 441.887,646.387 446.221,650.721 450.5,655C 459.446,658.806 468.112,663.139 476.5,668C 481.493,669.441 486.493,670.775 491.5,672C 496.215,677.923 500.049,684.423 503,691.5C 502.09,698.56 499.756,705.226 496,711.5C 489.667,720.5 483.333,729.5 477,738.5C 475.231,742.307 474.398,746.307 474.5,750.5C 475.664,757.474 476.164,764.474 476,771.5C 472.863,773.986 469.363,775.819 465.5,777C 458.276,778.769 450.943,779.769 443.5,780C 439.873,780.564 436.707,782.064 434,784.5C 425.443,797.13 421.776,811.13 423,826.5C 422.19,832.503 419.023,834.503 413.5,832.5C 411.626,832.39 410.126,833.056 409,834.5C 404.941,830.77 400.608,827.436 396,824.5C 391.358,826.638 386.525,828.138 381.5,829C 379.604,830.808 379.104,832.975 380,835.5C 384.843,838.588 389.509,841.921 394,845.5C 394.425,849.228 393.425,852.562 391,855.5C 389.426,854.152 387.593,853.486 385.5,853.5C 377.353,855.878 369.02,857.044 360.5,857C 356.928,857.432 354.595,859.265 353.5,862.5C 340.952,857.891 328.952,852.225 317.5,845.5C 315.574,841.978 313.907,838.312 312.5,834.5C 314.736,830.919 317.236,827.586 320,824.5C 320.667,812.833 320.667,801.167 320,789.5C 318.399,783.363 316.399,777.363 314,771.5C 311.545,760.217 312.545,749.217 317,738.5C 317.667,736.167 317.667,733.833 317,731.5C 316.101,729.632 314.601,728.632 312.5,728.5C 308.607,729.699 304.773,731.032 301,732.5C 297.188,731.521 294.021,729.521 291.5,726.5C 334.931,696.083 378.931,666.417 423.5,637.5 Z"/></g>
<g><path style="opacity:1" fill="#cee3e7" d="M 924.5,637.5 C 916.018,656.475 906.018,674.475 894.5,691.5C 894.719,684.623 893.719,677.956 891.5,671.5C 892.479,664.727 893.979,658.06 896,651.5C 903.311,645.168 911.811,641.335 921.5,640C 922.373,638.955 923.373,638.122 924.5,637.5 Z"/></g>
<g><path style="opacity:1" fill="#7b888a" d="M 291.5,726.5 C 294.021,729.521 297.188,731.521 301,732.5C 304.773,731.032 308.607,729.699 312.5,728.5C 314.601,728.632 316.101,729.632 317,731.5C 317.667,733.833 317.667,736.167 317,738.5C 312.545,749.217 311.545,760.217 314,771.5C 316.399,777.363 318.399,783.363 320,789.5C 320.667,801.167 320.667,812.833 320,824.5C 317.236,827.586 314.736,830.919 312.5,834.5C 313.907,838.312 315.574,841.978 317.5,845.5C 315.716,845.107 314.05,844.441 312.5,843.5C 311.206,840.452 310.206,837.285 309.5,834C 309.817,831.672 310.984,829.839 313,828.5C 313.495,826.527 313.662,824.527 313.5,822.5C 314.833,822.5 316.167,822.5 317.5,822.5C 317.667,811.828 317.5,801.161 317,790.5C 314.469,783.239 312.135,775.906 310,768.5C 309.333,762.833 309.333,757.167 310,751.5C 311.578,746.019 313.078,740.519 314.5,735C 314.231,733.393 313.397,732.226 312,731.5C 303.14,737.664 295.307,736.664 288.5,728.5C 289.29,727.599 290.29,726.932 291.5,726.5 Z"/></g>
<g><path style="opacity:1" fill="#cee3e7" d="M 288.5,728.5 C 295.307,736.664 303.14,737.664 312,731.5C 313.397,732.226 314.231,733.393 314.5,735C 313.078,740.519 311.578,746.019 310,751.5C 309.333,757.167 309.333,762.833 310,768.5C 312.135,775.906 314.469,783.239 317,790.5C 317.5,801.161 317.667,811.828 317.5,822.5C 316.167,822.5 314.833,822.5 313.5,822.5C 313.662,824.527 313.495,826.527 313,828.5C 310.984,829.839 309.817,831.672 309.5,834C 310.206,837.285 311.206,840.452 312.5,843.5C 278.424,825.421 247.424,803.088 219.5,776.5C 242.354,760.244 265.354,744.244 288.5,728.5 Z"/></g>
<g><path style="opacity:1" fill="#7b888a" d="M 845.5,753.5 C 844.243,756.427 842.243,758.761 839.5,760.5C 840.757,757.573 842.757,755.239 845.5,753.5 Z"/></g>
</svg>
